HIERARCHY
ROOT Hips
{
	OFFSET 0.000000 35.082581 0.000000
	CHANNELS 6 Xposition Yposition Zposition Xrotation Yrotation Zrotation 
	JOINT Spine
	{
		OFFSET 0.000000 6.876099 0.125700
		CHANNELS 3 Xrotation Yrotation Zrotation
		JOINT Spine1
		{
			OFFSET 0.000000 5.730043 0.104720
			CHANNELS 3 Xrotation Yrotation Zrotation
			JOINT Spine1_split
			{
				OFFSET 0.000000 5.730043 0.104720
				CHANNELS 3 Xrotation Yrotation Zrotation
				JOINT Spine2
				{
					OFFSET 0.000000 5.730043 0.104720
					CHANNELS 3 Xrotation Yrotation Zrotation
					JOINT Neck
					{
						OFFSET 0.000000 10.314075 0.188496
						CHANNELS 3 Xrotation Yrotation Zrotation
						JOINT Head
						{
							OFFSET 0.000000 7.643700 -2.377400
							CHANNELS 3 Xrotation Yrotation Zrotation
							JOINT HeadTop_End
							{
								OFFSET 0.000000 43.788605 -13.619600
								CHANNELS 3 Xrotation Yrotation Zrotation
								End Site
								{
									OFFSET 0.000000 0.000000 0.000000
								}
							}
						}
					}
					JOINT LeftShoulder
					{
						OFFSET 2.196100 4.412489 0.087492
						CHANNELS 3 Xrotation Yrotation Zrotation
						JOINT LeftShoulder_split
						{
							OFFSET 2.196100 4.412489 0.087492
							CHANNELS 3 Xrotation Yrotation Zrotation
							JOINT LeftArm
							{
								OFFSET 8.771219 -2.981674 -0.026999
								CHANNELS 3 Xrotation Yrotation Zrotation
								JOINT LeftForeArm
								{
									OFFSET 8.512804 0.000000 -0.000000
									CHANNELS 3 Xrotation Yrotation Zrotation
									JOINT LeftHand
									{
										OFFSET 18.484802 0.000000 -0.000000
										CHANNELS 3 Xrotation Yrotation Zrotation
										JOINT LeftHandThumb1
										{
											OFFSET 2.499420 -1.158070 2.653252
											CHANNELS 3 Xrotation Yrotation Zrotation
											JOINT LeftHandThumb2
											{
												OFFSET 2.370079 -1.368366 1.368366
												CHANNELS 3 Xrotation Yrotation Zrotation
												JOINT LeftHandThumb3
												{
													OFFSET 2.676727 -1.545410 1.545409
													CHANNELS 3 Xrotation Yrotation Zrotation
													JOINT LeftHandThumb4
													{
														OFFSET 1.692226 -0.977005 0.977007
														CHANNELS 3 Xrotation Yrotation Zrotation
														End Site
														{
															OFFSET 0.000000 0.000000 0.000000
														}
													}
												}
											}
										}
										JOINT LeftHandIndex1
										{
											OFFSET 7.924831 -0.457527 2.345128
											CHANNELS 3 Xrotation Yrotation Zrotation
											JOINT LeftHandIndex2
											{
												OFFSET 3.643303 0.000000 0.000000
												CHANNELS 3 Xrotation Yrotation Zrotation
												JOINT LeftHandIndex3
												{
													OFFSET 3.810799 0.000000 0.000000
													CHANNELS 3 Xrotation Yrotation Zrotation
													JOINT LeftHandIndex4
													{
														OFFSET 2.403702 0.000000 0.000000
														CHANNELS 3 Xrotation Yrotation Zrotation
														End Site
														{
															OFFSET 0.000000 0.000000 0.000000
														}
													}
												}
											}
										}
										JOINT LeftHandMiddle1
										{
											OFFSET 8.563995 0.000000 -0.000000
											CHANNELS 3 Xrotation Yrotation Zrotation
											JOINT LeftHandMiddle2
											{
												OFFSET 3.861618 0.000000 0.000000
												CHANNELS 3 Xrotation Yrotation Zrotation
												JOINT LeftHandMiddle3
												{
													OFFSET 3.701603 0.000000 0.000000
													CHANNELS 3 Xrotation Yrotation Zrotation
													JOINT LeftHandMiddle4
													{
														OFFSET 2.322544 0.000000 0.000000
														CHANNELS 3 Xrotation Yrotation Zrotation
														End Site
														{
															OFFSET 0.000000 0.000000 0.000000
														}
													}
												}
											}
										}
										JOINT LeftHandRing1
										{
											OFFSET 8.426460 -0.424637 -3.286992
											CHANNELS 3 Xrotation Yrotation Zrotation
											JOINT LeftHandRing2
											{
												OFFSET 3.126408 0.000000 0.000000
												CHANNELS 3 Xrotation Yrotation Zrotation
												JOINT LeftHandRing3
												{
													OFFSET 3.085026 0.000000 0.000000
													CHANNELS 3 Xrotation Yrotation Zrotation
													JOINT LeftHandRing4
													{
														OFFSET 1.644005 0.000000 0.000000
														CHANNELS 3 Xrotation Yrotation Zrotation
														End Site
														{
															OFFSET 0.000000 0.000000 0.000000
														}
													}
												}
											}
										}
									}
								}
							}
						}
					}
					JOINT RightShoulder
					{
						OFFSET -2.196100 4.412496 0.070690
						CHANNELS 3 Xrotation Yrotation Zrotation
						JOINT RightShoulder_split
						{
							OFFSET -2.196100 4.412496 0.070690
							CHANNELS 3 Xrotation Yrotation Zrotation
							JOINT RightArm
							{
								OFFSET -8.771282 -2.981682 -0.094208
								CHANNELS 3 Xrotation Yrotation Zrotation
								JOINT RightForeArm
								{
									OFFSET -8.494598 0.000000 0.000000
									CHANNELS 3 Xrotation Yrotation Zrotation
									JOINT RightHand
									{
										OFFSET -18.483803 0.000000 0.000001
										CHANNELS 3 Xrotation Yrotation Zrotation
										JOINT RightHandThumb1
										{
											OFFSET -2.527351 -1.008072 2.575253
											CHANNELS 3 Xrotation Yrotation Zrotation
											JOINT RightHandThumb2
											{
												OFFSET -2.321518 -1.340328 1.340329
												CHANNELS 3 Xrotation Yrotation Zrotation
												JOINT RightHandThumb3
												{
													OFFSET -2.657753 -1.534454 1.534455
													CHANNELS 3 Xrotation Yrotation Zrotation
													JOINT RightHandThumb4
													{
														OFFSET -1.807510 -1.043568 1.043567
														CHANNELS 3 Xrotation Yrotation Zrotation
														End Site
														{
															OFFSET 0.000000 0.000000 0.000000
														}
													}
												}
											}
										}
										JOINT RightHandIndex1
										{
											OFFSET -8.811420 0.015533 2.887987
											CHANNELS 3 Xrotation Yrotation Zrotation
											JOINT RightHandIndex2
											{
												OFFSET -3.537502 0.000000 0.000000
												CHANNELS 3 Xrotation Yrotation Zrotation
												JOINT RightHandIndex3
												{
													OFFSET -3.356201 0.000000 0.000000
													CHANNELS 3 Xrotation Yrotation Zrotation
													JOINT RightHandIndex4
													{
														OFFSET -1.933098 0.000000 0.000000
														CHANNELS 3 Xrotation Yrotation Zrotation
														End Site
														{
															OFFSET 0.000000 0.000000 0.000000
														}
													}
												}
											}
										}
										JOINT RightHandMiddle1
										{
											OFFSET -8.178135 0.000000 0.000000
											CHANNELS 3 Xrotation Yrotation Zrotation
											JOINT RightHandMiddle2
											{
												OFFSET -3.901302 0.000000 0.000000
												CHANNELS 3 Xrotation Yrotation Zrotation
												JOINT RightHandMiddle3
												{
													OFFSET -3.909599 0.000000 0.000000
													CHANNELS 3 Xrotation Yrotation Zrotation
													JOINT RightHandMiddle4
													{
														OFFSET -2.376003 0.000000 0.000000
														CHANNELS 3 Xrotation Yrotation Zrotation
														End Site
														{
															OFFSET 0.000000 0.000000 0.000000
														}
													}
												}
											}
										}
										JOINT RightHandRing1
										{
											OFFSET -7.559013 0.014137 -2.865403
											CHANNELS 3 Xrotation Yrotation Zrotation
											JOINT RightHandRing2
											{
												OFFSET -3.449306 0.000000 0.000000
												CHANNELS 3 Xrotation Yrotation Zrotation
												JOINT RightHandRing3
												{
													OFFSET -3.362106 0.000000 0.000000
													CHANNELS 3 Xrotation Yrotation Zrotation
													JOINT RightHandRing4
													{
														OFFSET -2.076401 0.000000 0.000000
														CHANNELS 3 Xrotation Yrotation Zrotation
														End Site
														{
															OFFSET 0.000000 0.000000 0.000000
														}
													}
												}
											}
										}
									}
								}
							}
						}
					}
				}
			}
		}
	}
	JOINT LeftUpLeg
	{
		OFFSET 10.205400 -3.823500 0.155100
		CHANNELS 3 Xrotation Yrotation Zrotation
		JOINT LeftLeg
		{
			OFFSET 0.708757 -12.982077 0.567790
			CHANNELS 3 Xrotation Yrotation Zrotation
			JOINT LeftFoot
			{
				OFFSET -0.708756 -10.717838 -2.184338
				CHANNELS 3 Xrotation Yrotation Zrotation
				JOINT LeftToeBase
				{
					OFFSET 0.108149 -7.191104 7.560241
					CHANNELS 3 Xrotation Yrotation Zrotation
					JOINT LeftToe_End
					{
						OFFSET 0.070230 0.081724 4.490308
						CHANNELS 3 Xrotation Yrotation Zrotation
						End Site
						{
							OFFSET 0.000000 0.000000 0.000000
						}
					}
				}
			}
		}
	}
	JOINT RightUpLeg
	{
		OFFSET -10.205400 -3.823500 0.005500
		CHANNELS 3 Xrotation Yrotation Zrotation
		JOINT RightLeg
		{
			OFFSET -0.708756 -12.982134 0.610632
			CHANNELS 3 Xrotation Yrotation Zrotation
			JOINT RightFoot
			{
				OFFSET 0.708754 -10.717769 -1.945823
				CHANNELS 3 Xrotation Yrotation Zrotation
				JOINT RightToeBase
				{
					OFFSET -0.108140 -7.191069 7.372968
					CHANNELS 3 Xrotation Yrotation Zrotation
					JOINT RightToe_End
					{
						OFFSET -0.070227 0.081735 4.479403
						CHANNELS 3 Xrotation Yrotation Zrotation
						End Site
						{
							OFFSET 0.000000 0.000000 0.000000
						}
					}
				}
			}
		}
	}
}
MOTION
Frames: 5
Frame Time: 0.016667
-0.001329 33.491142 -0.886784 2.912696 -29.017738 1.158358 7.836658 -0.330123 -2.654525 1.099255 -0.880575 2.383464 0.000000 0.000000 0.000000 1.108680 -0.590456 2.446368 -3.842072 18.019064 -6.496398 -6.332480 13.021552 0.301482 -0.000000 -0.000000 0.000000 -0.057392 -8.759445 -0.060977 0.000000 0.000000 0.000000 -55.249755 0.330157 -41.449901 11.585983 -65.829548 13.007189 -50.191201 12.353356 4.611962 17.542501 -5.723962 -12.930194 10.850465 26.127726 8.644812 20.926965 51.115845 0.218812 -0.000004 0.000000 0.000001 13.974944 1.202196 -55.004350 0.370822 1.161736 -65.441887 1.983337 2.148304 -57.646332 0.000000 -0.000002 0.000000 7.504731 1.174518 -63.778524 1.807852 1.475700 -64.567937 0.130370 -0.912276 -43.272489 -0.000000 0.000000 0.000000 8.574349 2.179179 -75.149013 -0.207626 1.009260 -57.855056 0.443120 1.742182 -53.581280 -0.000000 -0.000002 0.000002 4.849297 7.760158 5.560442 0.000000 0.000000 0.000000 -0.933511 -2.176878 61.845669 11.299299 18.943443 -3.987544 -0.459211 6.620151 5.830109 15.788498 -2.734456 -17.205875 -2.198332 -31.113554 7.361271 -6.566803 -4.138111 2.407542 0.000001 -0.000002 -0.000000 2.374669 -3.640931 8.487436 -2.147359 -2.473153 18.673273 -1.902994 -4.807333 14.173860 0.000001 -0.000000 -0.000001 -1.990511 -5.687066 13.662151 0.282196 -5.088235 26.988309 -0.665793 -1.219819 16.125795 0.000001 0.000000 0.000003 -3.248698 -8.544124 11.772722 4.043127 -4.063245 33.263643 2.099111 -3.161137 15.593347 -0.000000 -0.000001 0.000001 -17.085522 16.718616 17.224021 28.090557 9.555920 -5.132382 -11.725862 -1.486121 -9.407722 -0.175198 -0.014115 -0.261672 0.000000 0.000000 -0.000000 -14.533659 0.512700 -12.880287 22.484973 10.999116 2.301434 -11.778391 -2.096251 8.557664 -1.288089 -0.019870 0.149897 0.000000 0.000001 0.000000 
0.021223 33.476368 -0.924021 2.958239 -28.888627 1.139173 7.803092 -0.330536 -2.660372 1.074051 -0.871349 2.364664 0.000000 0.000000 0.000000 1.083490 -0.588035 2.427855 -3.746778 18.050076 -6.586955 -6.429083 13.000707 0.448107 -0.000000 0.000000 -0.000000 -0.004174 -8.315559 -0.161305 0.000000 0.000000 0.000000 -55.335266 0.717927 -41.094820 10.897082 -65.775418 12.310744 -50.186147 12.360852 4.470065 17.542487 -5.723958 -12.930196 10.824637 26.057624 8.641508 21.008714 51.257421 0.185817 -0.000002 0.000005 0.000003 13.985133 1.290456 -55.047377 0.371049 1.161932 -65.457521 1.983357 2.148297 -57.646346 0.000000 0.000001 0.000001 7.465902 1.197227 -63.754714 1.806405 1.476428 -64.514238 0.129871 -0.913215 -43.213285 0.000000 0.000002 -0.000001 8.571869 2.201349 -75.001276 -0.208880 1.005547 -57.694526 0.442376 1.741642 -53.532219 -0.000000 0.000000 0.000003 4.851993 7.811891 5.709654 0.000000 0.000000 0.000000 -0.844154 -2.132283 61.674614 11.420388 18.937664 -4.006104 -0.452342 6.527044 5.826801 15.788498 -2.734451 -17.205873 -2.106401 -31.245663 7.373546 -6.447860 -4.383498 2.353855 0.000002 0.000002 0.000001 2.374293 -3.644128 8.645122 -2.147465 -2.473293 18.952884 -1.903147 -4.809000 14.453399 -0.000000 -0.000000 -0.000002 -1.989609 -5.689719 13.819823 0.282332 -5.090157 27.268000 -0.665306 -1.219976 16.405416 0.000001 -0.000001 0.000002 -3.249573 -8.547459 11.930100 4.042398 -4.063373 33.543216 2.100190 -3.161187 15.873045 -0.000000 0.000000 -0.000000 -17.486536 16.657482 17.360630 28.536209 10.069634 -5.113782 -11.815636 -2.164895 -9.532302 -0.169353 -0.014133 -0.268421 0.000000 0.000000 0.000000 -14.629613 0.487809 -12.863413 22.623528 10.801173 2.308975 -11.850964 -2.083058 8.548379 -1.297482 -0.018803 0.101852 -0.000000 0.000004 -0.000000 
0.047589 33.461231 -0.958585 3.001457 -28.737826 1.112049 7.766145 -0.323999 -2.656704 1.051470 -0.856360 2.346641 0.000000 0.000000 0.000000 1.060735 -0.578901 2.409568 -4.035132 18.103341 -6.236029 -6.261312 13.166572 0.315301 -0.000000 0.000000 -0.000000 -0.095212 -7.833578 -0.261059 0.000000 0.000000 0.000000 -55.289067 1.044014 -40.597538 10.451468 -65.790417 11.849290 -50.183828 12.334679 4.429950 17.542467 -5.723981 -12.930194 10.824657 26.057682 8.641527 21.008747 51.257377 0.185772 -0.000003 0.000006 -0.000001 13.985149 1.290562 -55.047329 0.371044 1.161950 -65.457473 1.983365 2.148296 -57.646353 0.000000 0.000001 0.000001 7.465880 1.197217 -63.754721 1.806404 1.476422 -64.514183 0.129869 -0.913227 -43.213159 0.000000 -0.000000 0.000000 8.571867 2.201332 -75.001324 -0.208874 1.005566 -57.694601 0.442371 1.741617 -53.532250 -0.000000 0.000001 -0.000001 4.852116 7.875469 5.834413 0.000000 0.000000 0.000000 -0.731464 -2.101487 61.529964 11.542494 18.958857 -4.028559 -0.441502 6.372630 5.804637 15.788498 -2.734451 -17.205871 -2.008229 -31.386399 7.386915 -6.321383 -4.645014 2.297037 -0.000002 -0.000000 -0.000000 2.373903 -3.647525 8.813121 -2.147532 -2.473425 19.250801 -1.903373 -4.810734 14.751156 0.000000 -0.000000 -0.000000 -1.988677 -5.692530 13.987967 0.282489 -5.092161 27.566003 -0.664716 -1.220161 16.703345 0.000000 0.000000 -0.000002 -3.250494 -8.551005 12.097786 4.041630 -4.063499 33.840876 2.101346 -3.161263 16.171036 0.000000 0.000000 -0.000000 -17.916802 16.621393 17.500912 29.007988 10.583115 -5.081171 -11.920967 -2.892443 -9.655629 -0.164117 -0.014151 -0.274451 -0.000000 -0.000000 -0.000000 -14.690193 0.396668 -12.828673 22.744240 10.572952 2.250961 -11.936797 -2.062570 8.597861 -1.322924 -0.015841 -0.028569 0.000000 0.000000 0.000000 
0.079384 33.442348 -0.988498 3.034589 -28.526258 1.059686 7.720854 -0.304289 -2.625681 1.037692 -0.825897 2.332715 0.000000 0.000000 0.000000 1.046384 -0.551327 2.393829 -4.158290 18.277612 -6.094375 -6.212596 13.365645 0.304791 0.000000 0.000000 -0.000000 -0.122212 -7.332442 -0.370975 0.000000 0.000000 0.000000 -55.212961 1.531653 -40.105604 9.829873 -65.922616 11.210562 -50.174587 12.301573 4.331373 17.542489 -5.723957 -12.930199 10.824830 26.058113 8.641547 21.008509 51.256998 0.185884 -0.000004 0.000003 -0.000000 13.985212 1.291140 -55.047087 0.371035 1.161944 -65.456988 1.983359 2.148301 -57.646325 -0.000000 -0.000002 0.000001 7.465675 1.197349 -63.754523 1.806385 1.476440 -64.513985 0.129869 -0.913222 -43.212858 -0.000000 -0.000000 0.000000 8.571862 2.201234 -75.001617 -0.208874 1.005585 -57.694902 0.442388 1.741624 -53.532516 -0.000000 0.000000 0.000002 4.844685 7.972238 5.880415 0.000000 0.000000 0.000000 -0.550609 -2.122573 61.472823 11.675087 19.081213 -4.071067 -0.420782 6.035003 5.735725 15.788496 -2.734450 -17.205873 -1.904646 -31.534577 7.401412 -6.188443 -4.920557 2.237843 -0.000000 0.000000 -0.000000 2.373482 -3.651109 8.990280 -2.147595 -2.473564 19.564583 -1.903506 -4.812508 15.064752 0.000000 0.000001 -0.000003 -1.987683 -5.695484 14.164834 0.282645 -5.094233 27.879632 -0.664081 -1.220348 17.017003 0.000001 -0.000001 0.000002 -3.251466 -8.554752 12.274415 4.040903 -4.063616 34.154692 2.102599 -3.161312 16.484732 0.000001 -0.000000 0.000001 -18.478314 16.601058 17.566876 29.414271 9.759545 -5.027131 -11.983535 -2.384100 -9.346215 -0.154839 -0.014197 -0.285178 0.000000 0.000000 0.000000 -14.685398 0.248087 -12.776870 22.855582 10.285827 2.142509 -12.061814 -2.043004 8.705284 -1.360420 -0.015830 -0.220862 -0.000000 0.000001 -0.000000 
0.112644 33.424072 -1.015461 3.072360 -28.285275 1.001647 7.670497 -0.276151 -2.580071 1.024545 -0.785733 2.316043 0.000000 0.000000 0.000000 1.032501 -0.513470 2.374549 -4.234201 18.653808 -6.061271 -6.174075 13.712731 0.322350 0.000000 -0.000000 0.000000 -0.121059 -6.796895 -0.488129 0.000000 0.000000 0.000000 -55.142955 2.029472 -39.651707 9.135418 -66.083829 10.497899 -50.169225 12.261317 4.242540 17.542475 -5.723958 -12.930206 10.825046 26.058753 8.641562 21.008205 51.256506 0.186011 -0.000004 0.000000 0.000001 13.985271 1.291884 -55.046738 0.371035 1.161918 -65.456421 1.983355 2.148305 -57.646346 0.000000 0.000000 -0.000000 7.465407 1.197508 -63.754331 1.806391 1.476440 -64.513746 0.129852 -0.913219 -43.212486 -0.000000 0.000001 -0.000000 8.571862 2.201113 -75.001945 -0.208874 1.005585 -57.695264 0.442377 1.741643 -53.532817 -0.000000 0.000000 0.000000 4.835508 8.084639 5.913514 0.000000 0.000000 0.000000 -0.348458 -2.133804 61.427088 11.793704 19.189420 -4.098400 -0.394891 5.634954 5.628134 15.788496 -2.734454 -17.205877 -1.796505 -31.689069 7.416689 -6.050140 -5.207906 2.176836 -0.000000 -0.000000 -0.000000 2.373092 -3.654838 9.174765 -2.147606 -2.473695 19.891481 -1.903703 -4.814284 15.391705 -0.000001 0.000001 -0.000003 -1.986614 -5.698566 14.349281 0.282800 -5.096326 28.206516 -0.663385 -1.220552 17.343968 -0.000001 -0.000000 0.000001 -3.252439 -8.558651 12.458479 4.040155 -4.063753 34.481670 2.103964 -3.161384 16.811857 0.000001 0.000000 -0.000002 -19.038316 16.589563 17.695338 29.938819 9.790508 -4.954480 -12.102294 -2.764691 -9.309064 -0.146831 -0.014233 -0.294411 -0.000000 -0.000000 -0.000000 -14.644260 0.061653 -12.710881 22.936204 9.966697 1.996561 -12.190620 -2.021392 8.852362 -1.405947 -0.015853 -0.454369 0.000000 -0.000000 0.000000 
